<svg viewBox="0 -53 512 512" xmlns="http://www.w3.org/2000/svg"><path d="m333.574219 391.253906v1.113282c0 7.539062-6.109375 13.648437-13.652344 13.648437h-127.84375c-7.542969 0-13.652344-6.109375-13.652344-13.648437v-1.113282c0-6.378906 4.453125-11.785156 10.644531-13.3125 17.039063-4.203125 30.195313-18.261718 33.066407-35.785156.390625-2.351562.589843-4.761719.589843-7.222656v-10.300782h66.546876v10.300782c0 2.460937.199218 4.871094.589843 7.222656 2.871094 17.523438 16.027344 31.582031 33.066407 35.785156 6.191406 1.527344 10.644531 6.9375 10.644531 13.3125zm0 0" fill="#4e7693"/><path d="m289.863281 342.15625h-67.726562c.390625-2.351562.589843-4.761719.589843-7.222656v-10.300782h66.546876v10.300782c0 2.460937.199218 4.871094.589843 7.222656zm0 0" fill="#38627c"/><path d="m512 276.902344h-512v32.355468c0 11.339844 9.195312 20.535157 20.535156 20.535157h470.925782c11.34375 0 20.539062-9.195313 20.539062-20.535157zm0 0" fill="#618baa"/><path d="m491.464844 0h-470.929688c-11.339844 0-20.535156 9.195312-20.535156 20.535156v288.722656c0 11.339844 9.195312 20.535157 20.535156 20.535157h470.925782c11.34375 0 20.539062-9.195313 20.539062-20.535157v-288.722656c0-11.339844-9.195312-20.535156-20.535156-20.535156zm0 0" fill="#bddff4"/><path d="m512 276.902344h-512v32.355468c0 11.339844 9.195312 20.535157 20.535156 20.535157h470.925782c11.34375 0 20.539062-9.195313 20.539062-20.535157zm0 0" fill="#618baa"/><path d="m512 20.53125v288.730469c0 11.34375-9.199219 20.53125-20.542969 20.53125h-33.859375c11.339844 0 20.539063-9.1875 20.539063-20.53125v-288.730469c0-11.339844-9.199219-20.53125-20.539063-20.53125h33.859375c11.34375 0 20.542969 9.191406 20.542969 20.53125zm0 0" fill="#9cc6db"/><path d="m512 276.902344v32.359375c0 11.339843-9.199219 20.53125-20.542969 20.53125h-33.859375c11.339844 0 20.539063-9.191407 20.539063-20.53125v-32.359375zm0 0" fill="#38627c"/><path d="m109.714844 86.96875c0 18.335938-14.867188 33.203125-33.203125 33.203125-18.335938 0-33.214844-14.863281-33.214844-33.203125 0-15.691406 10.878906-28.824219 25.488281-32.304688 2.484375-.597656 5.066406-.90625 7.726563-.90625 2.65625 0 5.242187.308594 7.726562.90625 14.609375 3.480469 25.476563 16.613282 25.476563 32.304688zm0 0" fill="#43a3f9"/><path d="m84.238281 54.660156v25.128906c0 4.265626-3.460937 7.726563-7.726562 7.726563-4.273438 0-7.726563-3.464844-7.726563-7.726563v-25.128906c2.484375-.597656 5.070313-.902344 7.726563-.902344s5.242187.308594 7.726562.902344zm0 0" fill="#e3f4ff"/><path d="m99.988281 203.925781c-12.96875 12.960938-33.996093 12.960938-46.964843 0-12.960938-12.972656-12.960938-33.996093 0-46.964843 11.085937-11.085938 28.0625-12.695313 40.855468-4.8125 2.175782 1.320312 4.226563 2.925781 6.109375 4.8125 1.886719 1.882812 3.492188 3.933593 4.8125 6.105468 7.878907 12.796875 6.273438 29.773438-4.8125 40.859375zm0 0" fill="#5be167"/><path d="m104.800781 163.066406-17.75 17.761719c-1.515625 1.503906-3.492187 2.265625-5.460937 2.265625-1.976563 0-3.957032-.761719-5.46875-2.265625-3.019532-3.019531-3.019532-7.914063 0-10.929687l17.757812-17.75c2.175782 1.320312 4.226563 2.925781 6.109375 4.8125 1.886719 1.882812 3.492188 3.933593 4.8125 6.105468zm0 0" fill="#e3f4ff"/><path d="m199.578125 86.96875c0 18.335938-14.867187 33.203125-33.203125 33.203125-18.339844 0-33.203125-14.863281-33.203125-33.203125 0-15.691406 10.867187-28.824219 25.476563-32.304688 2.480468-.597656 5.066406-.90625 7.722656-.90625 2.660156 0 5.246094.308594 7.726562.90625 14.613282 3.480469 25.480469 16.613282 25.480469 32.304688zm0 0" fill="#fdb659"/><path d="m174.101562 54.660156v25.128906c0 4.265626-3.460937 7.726563-7.726562 7.726563s-7.726562-3.464844-7.726562-7.726563v-25.128906c2.484374-.597656 5.070312-.902344 7.726562-.902344s5.242188.308594 7.726562.902344zm0 0" fill="#e3f4ff"/><path d="m199.578125 180.4375c0 18.347656-14.867187 33.210938-33.203125 33.210938-15.679688 0-28.824219-10.867188-32.296875-25.484376-.597656-2.484374-.90625-5.070312-.90625-7.726562 0-2.660156.308594-5.242188.90625-7.726562 3.480469-14.609376 16.617187-25.476563 32.296875-25.476563 18.335938 0 33.203125 14.867187 33.203125 33.203125zm0 0" fill="#43a3f9"/><path d="m166.921875 180.4375c0 4.273438-3.460937 7.726562-7.726563 7.726562h-25.117187c-.597656-2.484374-.90625-5.070312-.90625-7.726562 0-2.660156.308594-5.242188.90625-7.726562h25.117187c4.265626 0 7.726563 3.460937 7.726563 7.726562zm0 0" fill="#e3f4ff"/><path d="m327.808594 190.046875v-25.335937c0-18.140626-14.703125-32.84375-32.84375-32.84375h-25.335938c-3.4375 0-6.222656 2.785156-6.222656 6.222656v25.335937c0 18.140625 14.703125 32.84375 32.84375 32.84375h25.335938c3.4375 0 6.222656-2.785156 6.222656-6.222656zm0 0" fill="#5be167"/><path d="m323.363281 199.214844c-1.976562 0-3.953125-.753906-5.460937-2.261719l-27.589844-27.589844c-3.019531-3.015625-3.019531-7.910156-.003906-10.925781 3.019531-3.019531 7.910156-3.019531 10.929687-.003906l27.589844 27.589844c3.015625 3.015624 3.015625 7.910156 0 10.925781-1.507813 1.511719-3.488281 2.265625-5.464844 2.265625zm0 0" fill="#aa6344"/><path d="m327.808594 246.789062c-4.265625 0-7.722656-3.457031-7.722656-7.722656v-115.207031c0-4.269531 3.457031-7.726563 7.722656-7.726563 4.269531 0 7.726562 3.460938 7.726562 7.726563v115.207031c0 4.265625-3.457031 7.722656-7.726562 7.722656zm0 0" fill="#aa6344"/><path d="m327.808594 218.546875v-25.335937c0-18.140626 14.707031-32.84375 32.84375-32.84375h25.339844c3.4375 0 6.222656 2.785156 6.222656 6.222656v25.335937c0 18.140625-14.707032 32.84375-32.84375 32.84375h-25.339844c-3.433594 0-6.222656-2.785156-6.222656-6.222656zm0 0" fill="#1fc974"/><path d="m332.257812 227.71875c-1.980468 0-3.957031-.757812-5.464843-2.265625-3.019531-3.015625-3.019531-7.90625 0-10.925781l27.589843-27.589844c3.015626-3.015625 7.90625-3.015625 10.925782 0 3.015625 3.015625 3.015625 7.910156 0 10.925781l-27.589844 27.589844c-1.507812 1.507813-3.488281 2.265625-5.460938 2.265625zm0 0" fill="#aa6344"/><path d="m350.128906 114.496094-17.914062 17.914062c-2.433594 2.429688-6.378906 2.429688-8.808594 0l-17.917969-17.914062c-12.824219-12.828125-12.824219-33.617188 0-46.441406l17.917969-17.925782c2.429688-2.421875 6.375-2.421875 8.808594 0l17.914062 17.925782c12.824219 12.824218 12.824219 33.613281 0 46.441406zm0 0" fill="#1fc974"/><path d="m335.304688 91.273438v38.046874l-3.09375 3.089844c-2.429688 2.433594-6.375 2.433594-8.808594 0l-3.550782-3.554687v-37.578125c0-4.265625 3.449219-7.726563 7.722657-7.726563 4.269531 0 7.730469 3.460938 7.730469 7.722657zm0 0" fill="#149856"/><path d="m423.921875 65.746094h-19.574219c-4.269531 0-7.726562-3.460938-7.726562-7.726563s3.457031-7.726562 7.726562-7.726562h19.574219c4.265625 0 7.722656 3.460937 7.722656 7.726562s-3.457031 7.726563-7.722656 7.726563zm0 0" fill="#1fc974"/><g fill="#618baa"><path d="m448.644531 170.386719h-13.390625c-4.269531 0-7.726562-3.457031-7.726562-7.726563 0-4.265625 3.457031-7.722656 7.726562-7.722656h13.390625c4.265625 0 7.726563 3.457031 7.726563 7.722656 0 4.269532-3.460938 7.726563-7.726563 7.726563zm0 0"/><path d="m448.644531 193.4375h-13.390625c-4.269531 0-7.726562-3.460938-7.726562-7.726562 0-4.265626 3.457031-7.726563 7.726562-7.726563h13.390625c4.265625 0 7.726563 3.460937 7.726563 7.726563 0 4.265624-3.460938 7.726562-7.726563 7.726562zm0 0"/><path d="m448.644531 216.484375h-13.390625c-4.269531 0-7.726562-3.457031-7.726562-7.722656 0-4.269531 3.457031-7.726563 7.726562-7.726563h13.390625c4.265625 0 7.726563 3.457032 7.726563 7.726563 0 4.265625-3.460938 7.722656-7.726563 7.722656zm0 0"/><path d="m453.796875 97.816406h-49.449219c-4.269531 0-7.726562-3.460937-7.726562-7.726562 0-4.269532 3.457031-7.726563 7.726562-7.726563h49.449219c4.265625 0 7.722656 3.460938 7.722656 7.726563 0 4.269531-3.457031 7.726562-7.722656 7.726562zm0 0"/><path d="m453.796875 120.292969h-49.449219c-4.269531 0-7.726562-3.457031-7.726562-7.726563 0-4.265625 3.457031-7.722656 7.726562-7.722656h49.449219c4.265625 0 7.722656 3.457031 7.722656 7.722656 0 4.269532-3.457031 7.726563-7.722656 7.726563zm0 0"/></g><path d="m241.578125 45.097656h-18.542969c-4.269531 0-7.726562-3.457031-7.726562-7.726562 0-4.265625 3.457031-7.726563 7.726562-7.726563h18.542969c4.265625 0 7.726563 3.460938 7.726563 7.726563 0 4.269531-3.460938 7.726562-7.726563 7.726562zm0 0" fill="#9cc6db"/><path d="m241.578125 246.789062h-18.542969c-4.269531 0-7.726562-3.457031-7.726562-7.722656 0-4.269531 3.457031-7.726562 7.726562-7.726562h18.542969c4.265625 0 7.726563 3.457031 7.726563 7.726562 0 4.265625-3.460938 7.722656-7.726563 7.722656zm0 0" fill="#9cc6db"/><path d="m232.304688 244.730469c-4.265626 0-7.726563-3.457031-7.726563-7.726563v-197.570312c0-4.269532 3.460937-7.726563 7.726563-7.726563 4.269531 0 7.726562 3.457031 7.726562 7.726563v197.570312c0 4.269532-3.457031 7.726563-7.726562 7.726563zm0 0" fill="#9cc6db"/></svg>