<svg viewBox="-13 0 512 512" xmlns="http://www.w3.org/2000/svg"><path d="m133.035156 286.769531h-19.46875c-4.203125 0-7.609375-3.410156-7.609375-7.613281s3.40625-7.609375 7.609375-7.609375h11.855469v-94.832031c0-4.203125 3.40625-7.609375 7.609375-7.609375 4.207031 0 7.613281 3.40625 7.613281 7.609375v102.441406c0 4.203125-3.40625 7.613281-7.609375 7.613281zm0 0" fill="#4e7693"/><path d="m146.101562 108.214844v31.097656h-86.964843v-31.097656c0-5.722656 4.636719-10.363282 10.359375-10.363282h66.242187c5.722657 0 10.363281 4.640626 10.363281 10.363282zm0 0" fill="#64bdff"/><path d="m59.136719 116.210938h86.964843v23.097656h-86.964843zm0 0" fill="#43a3f9"/><path d="m48.214844 128.390625h108.808594c7.476562 0 12.492187 7.679687 9.492187 14.527344l-12.09375 27.59375c-1.652344 3.769531-5.378906 6.207031-9.496094 6.207031h-84.617187c-4.113282 0-7.839844-2.4375-9.492188-6.207031l-12.09375-27.59375c-3.003906-6.847657 2.015625-14.527344 9.492188-14.527344zm0 0" fill="#e3f4ff"/><path d="m486.585938 351.203125v150.648437c0 5.605469-4.542969 10.148438-10.148438 10.148438h-466.289062c-5.605469 0-10.148438-4.542969-10.148438-10.148438v-150.648437c0-14.992187 12.152344-27.144531 27.148438-27.144531h432.292968c14.992188 0 27.144532 12.15625 27.144532 27.144531zm0 0" fill="#e29c6d"/><path d="m476.4375 512h-466.289062c-5.601563 0-10.148438-4.542969-10.148438-10.148438v-118.351562h486.585938v118.351562c0 5.605469-4.542969 10.148438-10.148438 10.148438zm0 0" fill="#fedfc5"/><path d="m476.4375 512h-466.289062c-5.601563 0-10.148438-4.542969-10.148438-10.148438v-40.40625h486.585938v40.40625c0 5.605469-4.542969 10.148438-10.148438 10.148438zm0 0" fill="#618baa"/><path d="m339.261719 215.046875v-32.941406c0-23.582031-19.117188-42.703125-42.699219-42.703125h-32.941406c-4.46875 0-8.089844 3.625-8.089844 8.089844v32.941406c0 23.585937 19.117188 42.703125 42.699219 42.703125h32.941406c4.46875 0 8.089844-3.621094 8.089844-8.089844zm0 0" fill="#5be167"/><path d="m333.480469 224.53125c-1.945313 0-3.894531-.742188-5.382813-2.226562l-35.867187-35.871094c-2.972657-2.96875-2.972657-7.789063 0-10.761719 2.972656-2.972656 7.792969-2.972656 10.765625 0l35.867187 35.867187c2.972657 2.972657 2.972657 7.792969 0 10.765626-1.484375 1.484374-3.433593 2.226562-5.382812 2.226562zm0 0" fill="#aa6344"/><path d="m339.261719 351.792969c-4.203125 0-7.613281-3.40625-7.613281-7.613281v-215.183594c0-4.207032 3.410156-7.613282 7.613281-7.613282 4.207031 0 7.609375 3.40625 7.609375 7.613282v215.1875c.003906 4.203125-3.40625 7.609375-7.609375 7.609375zm0 0" fill="#aa6344"/><path d="m339.261719 252.101562v-32.941406c0-23.582031 19.121093-42.699218 42.703125-42.699218h32.941406c4.464844 0 8.089844 3.621093 8.089844 8.089843v32.9375c0 23.585938-19.117188 42.703125-42.703125 42.703125h-32.941407c-4.464843 0-8.089843-3.621094-8.089843-8.089844zm0 0" fill="#1fc974"/><path d="m345.042969 261.589844c-1.949219 0-3.898438-.746094-5.382813-2.230469-2.972656-2.972656-2.972656-7.792969 0-10.765625l35.867188-35.867188c2.972656-2.972656 7.792968-2.972656 10.765625 0 2.972656 2.972657 2.972656 7.792969 0 10.765626l-35.867188 35.867187c-1.488281 1.484375-3.4375 2.230469-5.382812 2.230469zm0 0" fill="#aa6344"/><path d="m368.273438 114.964844-23.289063 23.289062c-3.15625 3.15625-8.28125 3.15625-11.4375 0l-2.175781-2.171875-21.128906-21.117187c-16.671876-16.675782-16.671876-43.710938 0-60.394532l23.300781-23.292968c3.15625-3.15625 8.28125-3.15625 11.4375 0l23.292969 23.292968c16.675781 16.683594 16.675781 43.71875 0 60.394532zm0 0" fill="#1fc974"/><path d="m346.566406 84.773438v50.722656c0 .445312-.039062.882812-.121094 1.296875l-1.460937 1.460937c-3.15625 3.15625-8.28125 3.15625-11.4375 0l-2.175781-2.171875c-.019532-.191406-.027344-.394531-.027344-.589843v-50.71875c0-4.214844 3.410156-7.613282 7.609375-7.613282 4.203125 0 7.613281 3.398438 7.613281 7.613282zm0 0" fill="#149856"/><path d="m191.101562 430.132812h-88.484374c-4.203126 0-7.609376-3.410156-7.609376-7.613281v-182.386719c0-4.207031 3.40625-7.613281 7.609376-7.613281 4.203124 0 7.613281 3.410157 7.613281 7.613281v174.777344h80.871093c4.203126 0 7.609376 3.40625 7.609376 7.609375 0 4.207031-3.40625 7.613281-7.609376 7.613281zm0 0" fill="#bddff4"/><path d="m113.566406 324.058594h-21.898437v-153.167969c0-6.046875 4.902343-10.949219 10.949219-10.949219 6.046874 0 10.949218 4.902344 10.949218 10.949219zm0 0" fill="#43a3f9"/><g fill="#64bdff"><path d="m122.59375 75.171875c-1.136719 0-2.285156-.253906-3.371094-.789063-5.195312-2.574218-10.78125-3.878906-16.605468-3.878906-5.824219 0-11.40625 1.304688-16.605469 3.878906-3.765625 1.867188-8.332031.320313-10.195313-3.445312-1.867187-3.769531-.324218-8.332031 3.445313-10.199219 7.308593-3.621093 15.167969-5.457031 23.355469-5.457031s16.042968 1.835938 23.355468 5.457031c3.769532 1.867188 5.3125 6.433594 3.445313 10.199219-1.324219 2.679688-4.023438 4.234375-6.824219 4.234375zm0 0"/><path d="m137.449219 51.03125c-1.136719 0-2.285157-.253906-3.375-.792969-9.839844-4.875-20.425781-7.34375-31.457031-7.34375s-21.613282 2.46875-31.457032 7.34375c-3.769531 1.867188-8.335937.324219-10.199218-3.445312-1.863282-3.765625-.324219-8.332031 3.445312-10.195313 11.960938-5.921875 24.816406-8.925781 38.210938-8.925781 13.394531 0 26.25 3.003906 38.214843 8.925781 3.765625 1.863282 5.308594 6.429688 3.441407 10.195313-1.328126 2.683593-4.023438 4.238281-6.824219 4.238281zm0 0"/><path d="m163.347656 29.40625c-1.132812 0-2.285156-.253906-3.371094-.789062-17.949218-8.886719-37.25-13.394532-57.359374-13.394532-20.109376 0-39.40625 4.507813-57.359376 13.394532-3.765624 1.867187-8.332031.324218-10.195312-3.445313-1.867188-3.769531-.324219-8.332031 3.445312-10.199219 20.066407-9.933594 41.636719-14.972656 64.109376-14.972656 22.472656 0 44.042968 5.039062 64.113281 14.972656 3.765625 1.867188 5.308593 6.433594 3.445312 10.199219-1.328125 2.683594-4.027343 4.234375-6.828125 4.234375zm0 0"/></g><path d="m444.457031 490.222656c-4.203125 0-7.660156-3.40625-7.660156-7.613281 0-4.203125 3.359375-7.609375 7.5625-7.609375h.097656c4.203125 0 7.613281 3.40625 7.613281 7.609375 0 4.207031-3.410156 7.613281-7.613281 7.613281zm0 0" fill="#4e7693"/><path d="m419.570312 494.335938c-4.183593 0-7.636718-3.382813-7.660156-7.574219-.019531-4.203125 3.320313-7.628907 7.523438-7.652344h.097656c4.167969-.019531 7.628906 3.367187 7.652344 7.574219.019531 4.203125-3.371094 7.628906-7.574219 7.648437-.011719.003907-.027344.003907-.039063.003907zm0 0" fill="#4e7693"/><path d="m275.804688 360.894531c-4.1875 0-7.640626-3.382812-7.660157-7.574219-.023437-4.203124 3.320313-7.628906 7.523438-7.648437h.097656.039063c4.183593 0 7.589843 3.382813 7.609374 7.570313.023438 4.207031-3.367187 7.628906-7.570312 7.652343-.015625 0-.027344 0-.039062 0zm0 0" fill="#c97f4c"/><path d="m250.914062 360.894531c-4.183593 0-7.636718-3.382812-7.65625-7.574219-.023437-4.203124 3.320313-7.628906 7.523438-7.648437h.097656c4.15625-.011719 7.628906 3.367187 7.648438 7.570313.023437 4.207031-3.367188 7.628906-7.574219 7.652343-.011719 0-.023437 0-.039063 0zm0 0" fill="#c97f4c"/><path d="m193.664062 499.367188c-4.183593 0-7.636718-3.378907-7.65625-7.570313-.023437-4.203125 3.320313-7.628906 7.523438-7.652344h.09375.042969c4.183593 0 7.589843 3.382813 7.609375 7.574219.023437 4.203125-3.367188 7.628906-7.570313 7.648438-.015625 0-.027343 0-.042969 0zm0 0" fill="#4e7693"/><path d="m123.347656 490.222656c-4.183594 0-7.636718-3.382812-7.65625-7.574218-.023437-4.203126 3.320313-7.628907 7.523438-7.648438h.09375.042968c4.183594 0 7.589844 3.382812 7.609376 7.570312.023437 4.203126-3.367188 7.628907-7.570313 7.652344-.015625 0-.027344 0-.042969 0zm0 0" fill="#4e7693"/><path d="m297.75 437.382812h-93.761719c-5.726562 0-10.371093-4.644531-10.371093-10.371093v-8.980469c0-5.726562 4.644531-10.371094 10.371093-10.371094h93.761719c5.726562 0 10.371094 4.644532 10.371094 10.371094v8.980469c0 5.726562-4.644532 10.371093-10.371094 10.371093zm0 0" fill="#43a3f9"/></svg>